<svg width="24" height="24" viewBox="0 0 24 24" fill="none" xmlns="http://www.w3.org/2000/svg">
<path d="M22.6013 2.06199C22.5561 1.89071 22.4664 1.73447 22.3411 1.60923C22.2159 1.48398 22.0597 1.39422 21.8884 1.3491C19.837 0.816284 17.6769 0.873671 15.6567 1.51465C13.6365 2.15562 11.8384 3.35413 10.4694 4.97216L9.3545 6.29599L6.7497 5.66751C6.11644 5.44673 5.42469 5.46256 4.80218 5.71205C4.17968 5.96155 3.66848 6.42787 3.36298 7.02489L1.16279 10.9248C1.0857 11.0614 1.04183 11.2142 1.03472 11.3709C1.02761 11.5276 1.05747 11.6838 1.12187 11.8268C1.18628 11.9698 1.28343 12.0957 1.40547 12.1942C1.52752 12.2927 1.67103 12.3612 1.82441 12.394L4.89716 13.0527C4.63687 13.845 4.45101 14.6599 4.34199 15.4868C4.32223 15.6387 4.33762 15.7931 4.38697 15.9381C4.43633 16.0831 4.51833 16.2149 4.62665 16.3232L7.72675 19.4233C7.81957 19.5162 7.92978 19.5899 8.0511 19.6401C8.17241 19.6904 8.30244 19.7163 8.43375 19.7163C8.46256 19.7163 8.49137 19.7148 8.52067 19.7124C9.36601 19.6364 10.2011 19.4722 11.0122 19.2224L11.6559 22.2256C11.6888 22.3789 11.7573 22.5224 11.8558 22.6444C11.9544 22.7664 12.0803 22.8635 12.2233 22.9279C12.3663 22.9923 12.5224 23.0221 12.6791 23.0151C12.8357 23.008 12.9885 22.9642 13.1252 22.8872L17.0304 20.6845C17.5801 20.3506 18.0094 19.8506 18.2566 19.2569C18.5037 18.6631 18.5558 18.0061 18.4054 17.3808L17.7367 14.6218L18.9738 13.4843C20.5979 12.1192 21.801 10.321 22.4431 8.29894C23.0853 6.27686 23.1401 4.11401 22.6013 2.06199V2.06199ZM3.57246 10.7231L5.12861 7.96337C5.22527 7.77601 5.38994 7.63273 5.58886 7.56291C5.78779 7.49309 6.00588 7.50202 6.19843 7.58788L7.91584 8.00408L7.26584 8.77587C6.6496 9.51444 6.11661 10.3187 5.67652 11.174L3.57246 10.7231ZM16.0427 18.9453L13.3269 20.477L12.8974 18.4723C13.768 18.0382 14.5791 17.4937 15.3107 16.8525L16.0543 16.1688L16.4577 17.8334C16.51 18.039 16.4983 18.2556 16.4242 18.4543C16.35 18.653 16.2169 18.8243 16.0427 18.9453V18.9453ZM17.6569 11.98L13.9724 15.3662C12.5139 16.6275 10.715 17.4292 8.80195 17.6704L6.39765 15.2661C6.72057 13.3481 7.54937 11.551 8.79853 10.0601L10.4769 8.06743C10.5048 8.03818 10.5309 8.0072 10.555 7.97467L11.9899 6.27099C13.0509 5.01788 14.4254 4.06879 15.9732 3.52063C17.5209 2.97247 19.1864 2.84487 20.7995 3.15087C21.1129 4.76908 20.9867 6.44173 20.434 7.99459C19.8812 9.54744 18.9223 10.9237 17.6569 11.98V11.98ZM16.7339 5.81623C16.4373 5.81623 16.1473 5.9042 15.9006 6.06902C15.6539 6.23384 15.4616 6.46811 15.3481 6.7422C15.2346 7.01629 15.2049 7.31789 15.2628 7.60886C15.3206 7.89983 15.4635 8.16711 15.6733 8.37688C15.8831 8.58666 16.1503 8.72953 16.4413 8.7874C16.7323 8.84528 17.0339 8.81558 17.308 8.70204C17.582 8.58851 17.8163 8.39625 17.9811 8.14958C18.146 7.90291 18.2339 7.6129 18.2339 7.31623C18.2339 7.11923 18.1952 6.92417 18.1198 6.74217C18.0444 6.56017 17.9339 6.39481 17.7946 6.25551C17.6553 6.11622 17.4899 6.00573 17.3079 5.93036C17.1259 5.85498 16.9309 5.81619 16.7339 5.81621L16.7339 5.81623Z" fill="#2E5FFF"/>
</svg>
