<svg width="20" height="21" viewBox="0 0 20 21" fill="none" xmlns="http://www.w3.org/2000/svg">
<path d="M2.493 8.00031C2.38356 8.00029 2.27518 8.02182 2.17406 8.06369C2.07295 8.10556 1.98107 8.16694 1.90368 8.24433C1.82629 8.32171 1.76491 8.41359 1.72304 8.51471C1.68117 8.61583 1.65964 8.7242 1.65967 8.83365V12.167C1.65967 12.388 1.74747 12.6 1.90375 12.7562C2.06003 12.9125 2.27199 13.0003 2.493 13.0003C2.71402 13.0003 2.92598 12.9125 3.08226 12.7562C3.23854 12.6 3.32633 12.388 3.32633 12.167V8.83365C3.32636 8.7242 3.30483 8.61583 3.26296 8.51471C3.22109 8.41359 3.15971 8.32171 3.08232 8.24433C3.00493 8.16694 2.91306 8.10556 2.81194 8.06369C2.71082 8.02182 2.60244 8.00029 2.493 8.00031ZM17.493 8.00031C17.3836 8.00029 17.2752 8.02182 17.1741 8.06369C17.0729 8.10556 16.9811 8.16694 16.9037 8.24433C16.8263 8.32171 16.7649 8.41359 16.723 8.51471C16.6812 8.61583 16.6596 8.7242 16.6597 8.83365V12.167C16.6597 12.388 16.7475 12.6 16.9037 12.7562C17.06 12.9125 17.272 13.0003 17.493 13.0003C17.714 13.0003 17.926 12.9125 18.0823 12.7562C18.2385 12.6 18.3263 12.388 18.3263 12.167V8.83365C18.3264 8.7242 18.3048 8.61583 18.263 8.51471C18.2211 8.41359 18.1597 8.32171 18.0823 8.24433C18.0049 8.16694 17.9131 8.10556 17.8119 8.06369C17.7108 8.02182 17.6024 8.00029 17.493 8.00031ZM14.0478 3.41698C14.1029 3.32222 14.1387 3.21752 14.1533 3.10888C14.1679 3.00024 14.1609 2.88978 14.1327 2.78386C14.1045 2.67793 14.0556 2.57861 13.989 2.49158C13.9223 2.40456 13.8392 2.33154 13.7442 2.27672C13.6493 2.2219 13.5445 2.18634 13.4358 2.1721C13.3271 2.15786 13.2167 2.1652 13.1109 2.19372C13.005 2.22223 12.9059 2.27135 12.819 2.33826C12.7322 2.40517 12.6594 2.48856 12.6049 2.58365L12.0931 3.46896C11.436 3.16033 10.719 3.00031 9.993 3.00031C9.26703 3.00031 8.54998 3.16033 7.89288 3.46896L7.3811 2.58365C7.32656 2.48856 7.2538 2.40517 7.16697 2.33826C7.08015 2.27135 6.98097 2.22223 6.87513 2.19372C6.76929 2.1652 6.65886 2.15786 6.55017 2.1721C6.44148 2.18634 6.33667 2.2219 6.24175 2.27672C6.14683 2.33154 6.06366 2.40456 5.99701 2.49158C5.93036 2.57861 5.88153 2.67793 5.85334 2.78386C5.82514 2.88978 5.81813 3.00024 5.83269 3.10888C5.84726 3.21752 5.88313 3.32222 5.93823 3.41698L6.51532 4.41526C6.03383 4.87998 5.65088 5.43693 5.38933 6.05287C5.12778 6.66882 4.99299 7.33114 4.993 8.00031V14.667C4.99297 14.7764 5.01451 14.8848 5.05638 14.9859C5.09825 15.087 5.15963 15.1789 5.23702 15.2563C5.3144 15.3337 5.40628 15.3951 5.5074 15.4369C5.60852 15.4788 5.71689 15.5003 5.82633 15.5003H7.493V18.0003C7.493 18.2213 7.5808 18.4333 7.73708 18.5896C7.89336 18.7458 8.10532 18.8336 8.32633 18.8336C8.54735 18.8336 8.75931 18.7458 8.91559 18.5896C9.07187 18.4333 9.15967 18.2213 9.15967 18.0003V15.5003H10.8263V18.0003C10.8263 18.2213 10.9141 18.4333 11.0704 18.5896C11.2267 18.7458 11.4387 18.8336 11.6597 18.8336C11.8807 18.8336 12.0926 18.7458 12.2489 18.5896C12.4052 18.4333 12.493 18.2213 12.493 18.0003V15.5003H14.1597C14.2691 15.5003 14.3775 15.4788 14.4786 15.4369C14.5797 15.3951 14.6716 15.3337 14.749 15.2563C14.8264 15.1789 14.8878 15.087 14.9296 14.9859C14.9715 14.8848 14.993 14.7764 14.993 14.667V8.00031C14.993 7.33114 14.8582 6.66882 14.5967 6.05287C14.3351 5.43693 13.9522 4.87998 13.4707 4.41526L14.0478 3.41698ZM13.3263 13.8336H6.65967V9.66698H13.3263V13.8336ZM6.65967 8.00031C6.65967 7.11626 7.01086 6.26841 7.63598 5.64329C8.2611 5.01817 9.10895 4.66698 9.993 4.66698C10.8771 4.66698 11.7249 5.01817 12.35 5.64329C12.9751 6.26841 13.3263 7.11626 13.3263 8.00031H6.65967Z" fill="#2E5FFF"/>
</svg>
