<svg width="20" height="21" viewBox="0 0 20 21" fill="none" xmlns="http://www.w3.org/2000/svg">
<path d="M17.0869 13.6196C16.577 13.4016 16.1427 13.0381 15.8382 12.5747C15.5337 12.1112 15.3724 11.5683 15.3746 11.0138C15.3812 10.5188 15.5138 10.0336 15.7598 9.60408C16.0059 9.17451 16.3573 8.81469 16.7809 8.55855C16.8767 8.49932 16.9596 8.42127 17.0244 8.32912C17.0892 8.23697 17.1347 8.13263 17.158 8.02241C17.1814 7.91219 17.1821 7.79837 17.1603 7.68785C17.1384 7.57733 17.0943 7.47239 17.0307 7.37938C16.6499 6.8256 16.1535 6.36106 15.5757 6.01782C14.9979 5.67457 14.3524 5.46081 13.684 5.39127C14.3061 4.40389 14.5885 3.24018 14.488 2.07746C14.4684 1.86633 14.3677 1.671 14.2072 1.53247C14.0467 1.39394 13.8387 1.32297 13.627 1.33446C12.1961 1.46199 10.8697 2.13687 9.9242 3.21841C9.32485 3.91289 8.90191 4.74174 8.69129 5.63458C8.25614 5.48732 7.80055 5.40933 7.34119 5.40347C6.49076 5.42757 5.66099 5.671 4.93232 6.11015C4.20366 6.5493 3.60082 7.16927 3.18226 7.90996C1.60918 10.6411 2.5715 14.7337 4.27559 17.1971C4.95918 18.1842 5.98498 19.6661 7.53243 19.6661C7.56294 19.6661 7.59387 19.6661 7.62479 19.6645C8.14327 19.6351 8.65087 19.5037 9.11853 19.2779C9.49207 19.0886 9.90419 18.9878 10.323 18.9833C10.7168 18.9881 11.104 19.0845 11.4541 19.2649C11.9657 19.5069 12.5232 19.6365 13.0891 19.6449C14.6833 19.6148 15.6249 18.2395 16.3125 17.2345C16.8551 16.4361 17.2797 15.5637 17.5731 14.6441C17.6357 14.4435 17.6204 14.2267 17.5303 14.0368C17.4401 13.847 17.2818 13.698 17.0869 13.6196ZM11.186 4.30647C11.6237 3.81689 12.1721 3.43908 12.7855 3.20459C12.6513 3.86479 12.3544 4.48103 11.9217 4.99739C11.628 5.34979 11.2706 5.64381 10.8682 5.86412L10.8658 5.86496C10.8422 5.87472 10.8186 5.88367 10.7949 5.89344C10.6395 5.95447 10.4474 6.03016 10.2993 6.07898C10.4424 5.42342 10.7472 4.81407 11.186 4.30647ZM14.9372 16.2938C14.2675 17.272 13.7406 17.9661 13.0586 17.9783C12.7289 17.9773 12.4048 17.8937 12.1158 17.735C11.5571 17.4628 10.9444 17.3198 10.323 17.3167C9.67995 17.3199 9.04566 17.4659 8.46587 17.7439C8.18398 17.8878 7.87645 17.9747 7.56092 17.9995H7.5361C6.8586 17.9995 6.12985 16.9472 5.64604 16.2482C4.43551 14.4985 3.31898 11.0122 4.62676 8.74165C4.90099 8.25032 5.29758 7.83823 5.77803 7.54536C6.25849 7.25249 6.80649 7.08879 7.36886 7.07015L7.39693 7.06932C7.87133 7.10963 8.3346 7.23506 8.76453 7.4396C8.87399 7.48272 8.98182 7.52586 9.08883 7.56573C9.11609 7.57713 9.14417 7.58771 9.17265 7.59666C9.46921 7.71593 9.78421 7.78285 10.1036 7.79442C10.5559 7.75847 10.9977 7.63957 11.407 7.44367C11.9839 7.16369 12.618 7.02187 13.2592 7.02944C13.945 7.05628 14.6034 7.30598 15.1346 7.74071C14.6807 8.15893 14.3193 8.66749 14.0736 9.2337C13.8279 9.79992 13.7034 10.4113 13.708 11.0285V11.0293C13.7033 11.7765 13.8882 12.5127 14.2454 13.1689C14.6027 13.8252 15.1206 14.3801 15.7506 14.7817C15.5312 15.3119 15.2587 15.8185 14.9372 16.2938Z" fill="#2E5FFF"/>
</svg>
