<svg width="20" height="21" viewBox="0 0 20 21" fill="none"
     xmlns="http://www.w3.org/2000/svg">
    <path d="M3.33317 12.55C3.33317 12.3289 3.24537 12.117 3.08909 11.9607C2.93281 11.8044 2.72085 11.7166 2.49984 11.7166C2.27882 11.7166 2.06686 11.8044 1.91058 11.9607C1.7543 12.117 1.6665 12.3289 1.6665 12.55V13.3833C1.6665 13.6043 1.7543 13.8163 1.91058 13.9725C2.06686 14.1288 2.27882 14.2166 2.49984 14.2166H3.33317C3.55418 14.2166 3.76615 14.1288 3.92243 13.9725C4.07871 13.8163 4.1665 13.6043 4.1665 13.3833C4.1665 13.1623 4.07871 12.9503 3.92243 12.794C3.76615 12.6378 3.55418 12.55 3.33317 12.55ZM6.8165 3.83329H8.5665C8.78752 3.83329 8.99948 3.7455 9.15576 3.58921C9.31204 3.43293 9.39984 3.22097 9.39984 2.99996C9.39984 2.77895 9.31204 2.56698 9.15576 2.4107C8.99948 2.25442 8.78752 2.16663 8.5665 2.16663H6.8165C6.59549 2.16663 6.38353 2.25442 6.22725 2.4107C6.07097 2.56698 5.98317 2.77895 5.98317 2.99996C5.98317 3.22097 6.07097 3.43293 6.22725 3.58921C6.38353 3.7455 6.59549 3.83329 6.8165 3.83329ZM12.0498 3.83329C12.0498 4.05431 12.1376 4.26627 12.2939 4.42255C12.4502 4.57883 12.6622 4.66663 12.8832 4.66663C13.1042 4.66663 13.3161 4.57883 13.4724 4.42255C13.6287 4.26627 13.7165 4.05431 13.7165 3.83329V2.99996C13.7165 2.77895 13.6287 2.56698 13.4724 2.4107C13.3161 2.25442 13.1042 2.16663 12.8832 2.16663H12.0498C11.8288 2.16663 11.6169 2.25442 11.4606 2.4107C11.3043 2.56698 11.2165 2.77895 11.2165 2.99996C11.2165 3.22097 11.3043 3.43293 11.4606 3.58921C11.6169 3.7455 11.8288 3.83329 12.0498 3.83329ZM3.33317 2.16663H2.49984C2.27882 2.16663 2.06686 2.25442 1.91058 2.4107C1.7543 2.56698 1.6665 2.77895 1.6665 2.99996V3.83329C1.6665 4.05431 1.7543 4.26627 1.91058 4.42255C2.06686 4.57883 2.27882 4.66663 2.49984 4.66663C2.72085 4.66663 2.93281 4.57883 3.08909 4.42255C3.24537 4.26627 3.33317 4.05431 3.33317 3.83329C3.55418 3.83329 3.76615 3.7455 3.92243 3.58921C4.07871 3.43293 4.1665 3.22097 4.1665 2.99996C4.1665 2.77895 4.07871 2.56698 3.92243 2.4107C3.76615 2.25442 3.55418 2.16663 3.33317 2.16663ZM2.49984 9.89996C2.72085 9.89996 2.93281 9.81216 3.08909 9.65588C3.24537 9.4996 3.33317 9.28764 3.33317 9.06663V7.31663C3.33317 7.09561 3.24537 6.88365 3.08909 6.72737C2.93281 6.57109 2.72085 6.48329 2.49984 6.48329C2.27882 6.48329 2.06686 6.57109 1.91058 6.72737C1.7543 6.88365 1.6665 7.09561 1.6665 7.31663V9.06663C1.6665 9.28764 1.7543 9.4996 1.91058 9.65588C2.06686 9.81216 2.27882 9.89996 2.49984 9.89996ZM13.1832 17.1666H11.4332C11.2122 17.1666 11.0002 17.2544 10.8439 17.4107C10.6876 17.567 10.5998 17.7789 10.5998 18C10.5998 18.221 10.6876 18.4329 10.8439 18.5892C11.0002 18.7455 11.2122 18.8333 11.4332 18.8333H13.1832C13.4042 18.8333 13.6161 18.7455 13.7724 18.5892C13.9287 18.4329 14.0165 18.221 14.0165 18C14.0165 17.7789 13.9287 17.567 13.7724 17.4107C13.6161 17.2544 13.4042 17.1666 13.1832 17.1666ZM17.4998 6.78329H16.6665C16.4455 6.78329 16.2335 6.87109 16.0772 7.02737C15.921 7.18365 15.8332 7.39561 15.8332 7.61663C15.8332 7.83764 15.921 8.0496 16.0772 8.20588C16.2335 8.36216 16.4455 8.44996 16.6665 8.44996C16.6665 8.67097 16.7543 8.88293 16.9106 9.03921C17.0669 9.1955 17.2788 9.28329 17.4998 9.28329C17.7208 9.28329 17.9328 9.1955 18.0891 9.03921C18.2454 8.88293 18.3332 8.67097 18.3332 8.44996V7.61663C18.3332 7.39561 18.2454 7.18365 18.0891 7.02737C17.9328 6.87109 17.7208 6.78329 17.4998 6.78329ZM17.4998 11.1C17.2788 11.1 17.0669 11.1878 16.9106 11.344C16.7543 11.5003 16.6665 11.7123 16.6665 11.9333V13.6833C16.6665 13.9043 16.7543 14.1163 16.9106 14.2725C17.0669 14.4288 17.2788 14.5166 17.4998 14.5166C17.7208 14.5166 17.9328 14.4288 18.0891 14.2725C18.2454 14.1163 18.3332 13.9043 18.3332 13.6833V11.9333C18.3332 11.7123 18.2454 11.5003 18.0891 11.344C17.9328 11.1878 17.7208 11.1 17.4998 11.1ZM13.7165 6.78329C13.7165 6.56228 13.6287 6.35032 13.4724 6.19404C13.3161 6.03776 13.1042 5.94996 12.8832 5.94996C12.6622 5.94996 12.4502 6.03776 12.2939 6.19404C12.1376 6.35032 12.0498 6.56228 12.0498 6.78329H7.1165C6.89549 6.78329 6.68353 6.87109 6.52725 7.02737C6.37097 7.18365 6.28317 7.39561 6.28317 7.61663V12.55C6.06216 12.55 5.8502 12.6378 5.69391 12.794C5.53763 12.9503 5.44984 13.1623 5.44984 13.3833C5.44984 13.6043 5.53763 13.8163 5.69391 13.9725C5.8502 14.1288 6.06216 14.2166 6.28317 14.2166C6.28317 14.4376 6.37097 14.6496 6.52725 14.8059C6.68353 14.9622 6.89549 15.05 7.1165 15.05C7.33752 15.05 7.54948 14.9622 7.70576 14.8059C7.86204 14.6496 7.94984 14.4376 7.94984 14.2166H12.8832C12.9926 14.2166 13.101 14.1951 13.2021 14.1532C13.3032 14.1113 13.395 14.0499 13.4724 13.9725C13.5498 13.8952 13.6112 13.8033 13.6531 13.7022C13.6949 13.6011 13.7165 13.4927 13.7165 13.3833V8.44996C13.9375 8.44996 14.1495 8.36216 14.3058 8.20588C14.462 8.0496 14.5498 7.83764 14.5498 7.61663C14.5498 7.39561 14.462 7.18365 14.3058 7.02737C14.1495 6.87109 13.9375 6.78329 13.7165 6.78329ZM12.0498 12.55H7.94984V8.44996H12.0498V12.55ZM17.4998 16.3333C17.2788 16.3333 17.0669 16.4211 16.9106 16.5774C16.7543 16.7336 16.6665 16.9456 16.6665 17.1666C16.4455 17.1666 16.2335 17.2544 16.0772 17.4107C15.921 17.567 15.8332 17.7789 15.8332 18C15.8332 18.221 15.921 18.4329 16.0772 18.5892C16.2335 18.7455 16.4455 18.8333 16.6665 18.8333H17.4998C17.7208 18.8333 17.9328 18.7455 18.0891 18.5892C18.2454 18.4329 18.3332 18.221 18.3332 18V17.1666C18.3332 16.9456 18.2454 16.7336 18.0891 16.5774C17.9328 16.4211 17.7208 16.3333 17.4998 16.3333ZM7.94984 17.1666C7.94984 16.9456 7.86204 16.7336 7.70576 16.5774C7.54948 16.4211 7.33752 16.3333 7.1165 16.3333C6.89549 16.3333 6.68353 16.4211 6.52725 16.5774C6.37097 16.7336 6.28317 16.9456 6.28317 17.1666V18C6.28317 18.221 6.37097 18.4329 6.52725 18.5892C6.68353 18.7455 6.89549 18.8333 7.1165 18.8333H7.94984C8.17085 18.8333 8.38281 18.7455 8.53909 18.5892C8.69537 18.4329 8.78317 18.221 8.78317 18C8.78317 17.7789 8.69537 17.567 8.53909 17.4107C8.38281 17.2544 8.17085 17.1666 7.94984 17.1666Z"
          fill="#2E5FFF"/>
</svg>